<?xml version="1.0" standalone="no"?>
<!DOCTYPE svg PUBLIC "-//W3C//DTD SVG 20010904//EN"
 "http://www.w3.org/TR/2001/REC-SVG-20010904/DTD/svg10.dtd">
<svg version="1.0" xmlns="http://www.w3.org/2000/svg"
 width="700.000000pt" height="700.000000pt" viewBox="0 0 700.000000 700.000000"
 preserveAspectRatio="xMidYMid meet">
<metadata>
Created by potrace 1.11, written by Peter Selinger 2001-2013
</metadata>
<g transform="translate(0.000000,700.000000) scale(0.100000,-0.100000)"
fill="#000000" stroke="none">
<path d="M2 3501 l3 -1316 272 -1 c267 -1 271 0 275 20 2 12 3 245 3 519 l-1
497 581 0 581 0 -1 -502 c0 -277 1 -510 3 -519 3 -14 32 -16 242 -15 159 0
241 3 243 10 2 6 4 404 3 884 -1 481 2 876 7 879 4 2 14 -13 23 -34 15 -39 20
-50 47 -113 8 -19 49 -120 91 -225 42 -104 81 -199 86 -210 5 -11 59 -141 119
-290 60 -148 146 -360 191 -470 45 -110 100 -246 123 -303 l41 -102 175 2 175
3 77 190 c42 105 84 206 92 225 8 19 54 132 102 250 116 286 134 329 151 367
8 17 14 34 14 38 0 4 6 21 14 38 15 34 117 281 207 505 29 72 57 132 61 132 4
0 8 -400 8 -888 l0 -888 245 0 245 -1 0 1317 0 1316 -319 0 -319 0 -373 -933
c-205 -513 -377 -932 -382 -930 -5 1 -34 65 -64 142 -30 77 -61 154 -68 170
-7 17 -25 62 -40 100 -15 39 -33 84 -40 100 -7 17 -61 152 -120 300 -59 149
-114 286 -122 305 -8 19 -78 195 -157 390 l-142 355 -1177 1 -1177 1 2 -1316z
m1693 860 c21 -1 21 -5 20 -353 l0 -352 -581 -1 -580 0 0 350 c0 193 3 352 7
355 5 4 1028 4 1134 1z"/>
<path d="M5381 4671 c-28 -80 -53 -153 -56 -161 -8 -31 -287 -831 -305 -875
-6 -16 -13 -37 -15 -45 -2 -8 -31 -94 -65 -190 -34 -96 -84 -238 -110 -315
-73 -213 -179 -517 -291 -834 -10 -30 -19 -57 -19 -61 0 -4 126 -7 280 -6
l280 0 15 40 c8 23 30 91 49 151 19 61 58 184 87 275 28 91 53 167 54 168 3 3
835 5 913 3 12 -1 22 -7 22 -14 0 -12 18 -69 138 -448 l55 -176 294 1 c161 0
293 2 293 3 0 1 -6 20 -14 40 -16 42 -45 124 -166 473 -45 129 -97 278 -115
330 -18 52 -72 208 -120 345 -48 138 -97 279 -110 315 -44 124 -307 879 -362
1040 -14 41 -28 77 -30 80 -3 3 -150 5 -328 6 l-323 0 -51 -145z m372 -393 c2
-13 41 -138 85 -278 198 -630 233 -743 229 -754 -4 -13 -677 -17 -677 -4 0 4
6 25 14 45 8 21 60 184 116 363 223 718 205 664 219 656 5 -3 11 -16 14 -28z"/>
</g>
</svg>
